<?xml version="1.0" encoding="utf-8"?>
<!-- Generator: Adobe Illustrator 18.0.0, SVG Export Plug-In . SVG Version: 6.00 Build 0)  -->
<!DOCTYPE svg PUBLIC "-//W3C//DTD SVG 1.1//EN" "http://www.w3.org/Graphics/SVG/1.1/DTD/svg11.dtd" [
	<!ENTITY ns_extend "http://ns.adobe.com/Extensibility/1.0/">
	<!ENTITY ns_ai "http://ns.adobe.com/AdobeIllustrator/10.0/">
	<!ENTITY ns_graphs "http://ns.adobe.com/Graphs/1.0/">
	<!ENTITY ns_vars "http://ns.adobe.com/Variables/1.0/">
	<!ENTITY ns_imrep "http://ns.adobe.com/ImageReplacement/1.0/">
	<!ENTITY ns_sfw "http://ns.adobe.com/SaveForWeb/1.0/">
	<!ENTITY ns_custom "http://ns.adobe.com/GenericCustomNamespace/1.0/">
	<!ENTITY ns_adobe_xpath "http://ns.adobe.com/XPath/1.0/">
]>
<svg version="1.1" id="Layer_1" xmlns:x="&ns_extend;" xmlns:i="&ns_ai;" xmlns:graph="&ns_graphs;"
	 xmlns="http://www.w3.org/2000/svg" xmlns:xlink="http://www.w3.org/1999/xlink" x="0px" y="0px" width="100px" height="100px"
	 viewBox="0 0 100 100" enable-background="new 0 0 100 100" xml:space="preserve">
<metadata>
	<sfw  xmlns="&ns_sfw;">
		<slices></slices>
		<sliceSourceBounds  width="99.8" height="99.8" bottomLeftOrigin="true" y="0.1" x="0.1"></sliceSourceBounds>
	</sfw>
</metadata>
<circle fill="none" stroke="#CFCFCF" stroke-miterlimit="10" cx="50" cy="50" r="49.4"/>
<g>
	<path fill="#FBE700" d="M19.3,66V56H21v10H19.3z"/>
	<path fill="#FBE700" d="M31.9,66h-2L25,58h-0.1v0.4C25,59.2,25,60,25,60.7V66h-1.5V56h2l4.9,7.9l0,0c0-0.1,0-0.5-0.1-1.1
		c0-0.7,0-1.2,0-1.5V56h1.5v10H31.9z"/>
	<path fill="#FBE700" d="M38,66h-1.6v-8.6h-2.9V56H41v1.4h-3V66z"/>
	<path fill="#FBE700" d="M44.1,62v4h-1.6V56h2.8c1.3,0,2.2,0.2,2.9,0.7s0.9,1.2,0.9,2.2c0,1.2-0.6,2.1-1.9,2.7L50,66h-1.9l-2.4-4
		H44.1z M44.1,60.7h1.1c0.8,0,1.3-0.1,1.7-0.4s0.5-0.7,0.5-1.3s-0.2-1-0.6-1.2s-0.9-0.4-1.7-0.4H44L44.1,60.7L44.1,60.7z"/>
	<path fill="#FBE700" d="M57.6,66l-1-2.8h-3.8l-1,2.8h-1.7l3.7-10h1.8l3.7,10H57.6z M56.2,61.8l-0.9-2.7c-0.1-0.2-0.2-0.5-0.3-0.9
		s-0.2-0.7-0.2-0.9c-0.1,0.6-0.3,1.2-0.5,1.8l-0.9,2.6h2.8V61.8z"/>
	<path fill="#FBE700" d="M69,66h-2l-4.9-8H62v0.4c0.1,0.8,0.1,1.6,0.1,2.3V66h-1.5V56h2l4.9,7.9l0,0c0-0.1,0-0.5-0.1-1.1
		c0-0.7,0-1.2,0-1.5V56H69V66z"/>
	<path fill="#FBE700" d="M77.3,66h-5.7V56h5.7v1.4h-4v2.7H77v1.4h-3.8v3.1h4V66H77.3z"/>
	<path fill="#FBE700" d="M82.9,66h-1.6v-8.6h-2.9V56h7.5v1.4H83L82.9,66L82.9,66z"/>
</g>
<g id="Layer_2">
	<path fill="#FFFFFF" d="M78.8,27.1c0,0-0.6,0-1.3,0.6c-0.6,0.4-0.9,1-0.9,1s-3.2,11.7-3.3,12.5c-0.1-0.9-3.9-14.1-3.9-14.1h-6.1
		l-3.9,14.1l-3.8-14.1H20.2v19.3c0,0,0,0.9,0.6,1.6c0.6,0.7,1.4,1,1.4,1H26v-8.1h7.6v-5.4h-7.7v-3.3l10.3,0.1V49H42v-8.2l7.5,0.1
		v-5.3H42v-3.4h9L55.8,49h6.8l3.7-12.7L70,49h6.6L83,27.1H78.8z M73.2,41.2L73.2,41.2L73.2,41.2z"/>
</g>
</svg>
